<svg width="198" height="56" viewBox="0 0 198 56" fill="none" xmlns="http://www.w3.org/2000/svg">
<path d="M82.1538 38.6205C79.2203 38.6205 76.981 37.8047 75.4361 36.173C73.9086 34.5413 73.1448 32.224 73.1448 29.221C73.1448 27.7281 73.3792 26.4002 73.8478 25.2372C74.3165 24.0569 74.9588 23.0674 75.7746 22.2689C76.5905 21.4531 77.5625 20.8369 78.6908 20.4203C79.8191 20.0037 81.0429 19.7954 82.3621 19.7954C83.1259 19.7954 83.8202 19.8561 84.4451 19.9776C85.07 20.0818 85.6168 20.212 86.0855 20.3682C86.5542 20.5071 86.9447 20.6546 87.2572 20.8108C87.5696 20.9671 87.7953 21.0886 87.9341 21.1754L86.7625 24.4561C86.207 24.161 85.556 23.9093 84.8096 23.701C84.0806 23.4927 83.2474 23.3886 82.31 23.3886C81.6851 23.3886 81.0689 23.4927 80.4614 23.701C79.8712 23.9093 79.3418 24.2478 78.8731 24.7165C78.4218 25.1678 78.0572 25.758 77.7795 26.487C77.5018 27.2161 77.3629 28.1013 77.3629 29.1428C77.3629 29.9761 77.4497 30.7572 77.6233 31.4862C77.8142 32.1979 78.1093 32.8141 78.5086 33.3349C78.9252 33.8556 79.4633 34.2722 80.1229 34.5847C80.7825 34.8798 81.581 35.0273 82.5183 35.0273C83.1085 35.0273 83.638 34.9926 84.1066 34.9232C84.5753 34.8537 84.9919 34.7756 85.3564 34.6888C85.721 34.5847 86.0421 34.4719 86.3198 34.3504C86.5976 34.2288 86.8492 34.116 87.0749 34.0119L88.1945 37.2666C87.6217 37.6137 86.8145 37.9262 85.773 38.2039C84.7315 38.4816 83.5251 38.6205 82.1538 38.6205ZM103.628 38.256C103.438 37.6311 103.221 36.9888 102.978 36.3292C102.752 35.6696 102.526 35.01 102.301 34.3504H95.2704C95.0448 35.01 94.8104 35.6696 94.5674 36.3292C94.3417 36.9888 94.1334 37.6311 93.9425 38.256H89.7244C90.4014 36.3118 91.0437 34.5153 91.6512 32.8662C92.2587 31.2172 92.8489 29.6636 93.4218 28.2055C94.0119 26.7474 94.5848 25.3674 95.1402 24.0655C95.7131 22.7463 96.3032 21.4618 96.9108 20.212H100.79C101.381 21.4618 101.962 22.7463 102.535 24.0655C103.108 25.3674 103.681 26.7474 104.253 28.2055C104.844 29.6636 105.442 31.2172 106.05 32.8662C106.657 34.5153 107.3 36.3118 107.977 38.256H103.628ZM98.7594 24.2999C98.6727 24.5602 98.5425 24.9161 98.3689 25.3674C98.1953 25.8187 97.9957 26.3395 97.77 26.9297C97.5444 27.5198 97.2927 28.1708 97.0149 28.8825C96.7546 29.5942 96.4855 30.3406 96.2078 31.1217H101.337C101.059 30.3406 100.79 29.5942 100.53 28.8825C100.27 28.1708 100.018 27.5198 99.7749 26.9297C99.5492 26.3395 99.3496 25.8187 99.176 25.3674C99.0025 24.9161 98.8636 24.5602 98.7594 24.2999ZM115.598 20.0037C118.306 20.0037 120.38 20.4897 121.821 21.4618C123.262 22.4165 123.982 23.9093 123.982 25.9402C123.982 27.2074 123.687 28.2402 123.097 29.0387C122.524 29.8198 121.691 30.436 120.597 30.8874C120.962 31.3387 121.344 31.8594 121.743 32.4496C122.142 33.0224 122.533 33.63 122.915 34.2722C123.314 34.8971 123.696 35.5568 124.06 36.2511C124.425 36.9281 124.763 37.5964 125.076 38.256H120.519C120.189 37.6658 119.851 37.0669 119.504 36.4594C119.174 35.8519 118.827 35.2617 118.462 34.6888C118.115 34.116 117.768 33.5779 117.421 33.0745C117.073 32.5538 116.726 32.0851 116.379 31.6685H114.374V38.256H110.312V20.4724C111.198 20.2988 112.109 20.1773 113.046 20.1078C114.001 20.0384 114.852 20.0037 115.598 20.0037ZM115.832 23.4667C115.537 23.4667 115.268 23.4754 115.025 23.4927C114.8 23.5101 114.583 23.5274 114.374 23.5448V28.4398H115.52C117.047 28.4398 118.141 28.2489 118.801 27.867C119.46 27.4851 119.79 26.8342 119.79 25.9142C119.79 25.0289 119.452 24.404 118.775 24.0395C118.115 23.6576 117.134 23.4667 115.832 23.4667ZM132.47 20.212C132.783 20.7848 133.138 21.4965 133.538 22.3471C133.954 23.1803 134.38 24.0916 134.813 25.081C135.265 26.0531 135.707 27.0512 136.141 28.0753C136.575 29.0995 136.983 30.0628 137.365 30.9655C137.747 30.0628 138.155 29.0995 138.589 28.0753C139.023 27.0512 139.457 26.0531 139.891 25.081C140.342 24.0916 140.767 23.1803 141.167 22.3471C141.583 21.4965 141.948 20.7848 142.26 20.212H145.958C146.131 21.4097 146.287 22.755 146.426 24.2478C146.582 25.7233 146.713 27.2681 146.817 28.8825C146.938 30.4794 147.042 32.0851 147.129 33.6994C147.233 35.3137 147.32 36.8326 147.39 38.256H143.432C143.38 36.5028 143.31 34.5934 143.224 32.5277C143.137 30.4621 143.007 28.3791 142.833 26.2787C142.521 27.0078 142.173 27.8149 141.792 28.7002C141.41 29.5855 141.028 30.4708 140.646 31.356C140.281 32.2413 139.926 33.0919 139.578 33.9077C139.231 34.7062 138.936 35.3919 138.693 35.9647H135.855C135.612 35.3919 135.317 34.7062 134.97 33.9077C134.623 33.0919 134.258 32.2413 133.876 31.356C133.512 30.4708 133.138 29.5855 132.757 28.7002C132.375 27.8149 132.027 27.0078 131.715 26.2787C131.541 28.3791 131.411 30.4621 131.324 32.5277C131.238 34.5934 131.168 36.5028 131.116 38.256H127.158C127.228 36.8326 127.306 35.3137 127.393 33.6994C127.497 32.0851 127.601 30.4794 127.705 28.8825C127.827 27.2681 127.957 25.7233 128.096 24.2478C128.252 22.755 128.417 21.4097 128.591 20.212H132.47ZM151.047 38.256V20.212H163.232V23.6229H155.109V27.164H162.321V30.4968H155.109V34.8451H163.831V38.256H151.047ZM178.945 38.256C177.782 36.1903 176.523 34.1507 175.169 32.1372C173.815 30.1236 172.374 28.2229 170.847 26.4349V38.256H166.837V20.212H170.144C170.717 20.7848 171.35 21.4878 172.045 22.321C172.739 23.1542 173.442 24.0482 174.154 25.0029C174.883 25.9402 175.603 26.921 176.315 27.9451C177.027 28.9519 177.695 29.924 178.32 30.8613V20.212H182.356V38.256H178.945Z" fill="black"/>
<path d="M44.8429 8.8429H11.6714C10.6939 8.8429 9.75644 9.23121 9.06524 9.92242C8.37403 10.6136 7.98572 11.5511 7.98572 12.5286V16.2143H48.5286V12.5286C48.5286 11.5511 48.1403 10.6136 47.4491 9.92242C46.7579 9.23121 45.8204 8.8429 44.8429 8.8429ZM13.5143 14.3715C13.1498 14.3715 12.7935 14.2634 12.4905 14.0609C12.1874 13.8584 11.9512 13.5706 11.8117 13.2338C11.6722 12.8971 11.6357 12.5266 11.7068 12.1691C11.7779 11.8116 11.9535 11.4832 12.2112 11.2255C12.4689 10.9678 12.7973 10.7923 13.1548 10.7212C13.5122 10.6501 13.8828 10.6866 14.2195 10.826C14.5563 10.9655 14.8441 11.2017 15.0466 11.5048C15.2491 11.8078 15.3571 12.1641 15.3571 12.5286C15.3571 13.0174 15.163 13.4861 14.8174 13.8317C14.4718 14.1773 14.003 14.3715 13.5143 14.3715ZM19.0429 14.3715C18.6784 14.3715 18.3221 14.2634 18.019 14.0609C17.716 13.8584 17.4798 13.5706 17.3403 13.2338C17.2008 12.8971 17.1643 12.5266 17.2354 12.1691C17.3065 11.8116 17.482 11.4832 17.7398 11.2255C17.9975 10.9678 18.3259 10.7923 18.6833 10.7212C19.0408 10.6501 19.4114 10.6866 19.7481 10.826C20.0848 10.9655 20.3726 11.2017 20.5751 11.5048C20.7776 11.8078 20.8857 12.1641 20.8857 12.5286C20.8843 13.0169 20.6896 13.4848 20.3443 13.8301C19.9991 14.1754 19.5312 14.37 19.0429 14.3715V14.3715Z" fill="url(#paint0_linear_31_404)"/>
<path d="M48.5286 25.4286V18.0571H7.98572V43.8571C7.98572 44.8346 8.37403 45.7721 9.06524 46.4633C9.75644 47.1545 10.6939 47.5428 11.6714 47.5428H44.8429C45.8204 47.5428 46.7579 47.1545 47.4491 46.4633C48.1403 45.7721 48.5286 44.8346 48.5286 43.8571V25.4286Z" fill="url(#paint1_linear_31_404)"/>
<path d="M20.0816 38.4104C19.8644 36.3768 20 35.2371 20.0816 33.1388C20.1509 31.3583 20.1179 28.9429 21.2891 27.6203C22.2588 26.5251 24.4894 25.9694 25.9826 26.6428C27.84 27.4803 28.1472 30.2593 28.3147 32.0199C28.4932 33.8963 28.1544 36.6297 29.7404 38.0031C31.0747 39.1586 34.5511 38.9001 35.7642 37.6774C37.4928 35.9351 36.4028 29.1894 36.6133 26.6428" stroke="white" stroke-width="3.79524" stroke-linecap="round" stroke-linejoin="round"/>
<defs>
<linearGradient id="paint0_linear_31_404" x1="7.98572" y1="13.2646" x2="45.8186" y2="16.5856" gradientUnits="userSpaceOnUse">
<stop stop-color="#BD00FF"/>
<stop offset="1" stop-color="#5369DD"/>
</linearGradient>
<linearGradient id="paint1_linear_31_404" x1="7.98572" y1="35.7438" x2="46.0918" y2="36.5801" gradientUnits="userSpaceOnUse">
<stop stop-color="#BD00FF"/>
<stop offset="1" stop-color="#5369DD"/>
</linearGradient>
</defs>
</svg>
